<?xml version="1.0"?>
<svg width="412.04" height="500.65" xmlns="http://www.w3.org/2000/svg" xmlns:svg="http://www.w3.org/2000/svg" data-name="Layer 2">
 <defs>
  <linearGradient id="linear-gradient" x1="0.3" x2="0.76" y1="0.04" y2="1.09">
   <stop offset="0.09" stop-color="#f84b82"/>
   <stop offset="0.3" stop-color="#c8459a"/>
   <stop offset="0.74" stop-color="#5a3ad5"/>
  </linearGradient>
 </defs>
 <g class="layer">
  <title>Layer 1</title>
  <g id="svg_1">
   <rect height="501.16" id="svg_2" width="410.81" x="0.84" y="0.92"/>
   <path d="m411.31,1.34l0,500.33l-410.13,0l0,-500.33l410.13,0m0.69,-0.84l-411.5,0l0,502l411.5,0l0,-502l0,0z" id="svg_3"/>
  </g>
  <g data-name="Layer 1" id="Layer_1">
   <g id="svg_4">
    <g id="svg_5">
     <path d="m65.81,499.57l-15.6,0l-8.53,-15.69c-1.38,-2.55 -2.75,-4.47 -4.13,-5.76c-1.38,-1.29 -2.96,-2.01 -4.75,-2.15l-4.04,0l0,23.6l-13.71,0l0,-63.02l22.19,0c7.53,0 13.2,1.48 17.01,4.44c3.81,2.96 5.71,7.41 5.71,13.36c0,4.19 -1.22,7.8 -3.67,10.83c-2.45,3.03 -5.79,5.28 -10.04,6.75l0,0.18c1.82,0.59 3.52,1.78 5.12,3.58c1.6,1.8 2.95,3.71 4.06,5.74l10.37,18.15l0.01,-0.01zm-37.05,-52.65l0,18.59l6.42,0c3.1,0 5.6,-0.94 7.49,-2.81s2.83,-4.2 2.83,-6.99s-0.83,-5.09 -2.5,-6.57c-1.67,-1.48 -4.19,-2.22 -7.56,-2.22l-6.68,0z" fill="#fff" id="svg_6" stroke="#fff" stroke-miterlimit="10"/>
     <path d="m111.16,480.28l-30.37,0c0.23,3.54 1.39,6.2 3.47,7.98c2.08,1.77 4.95,2.66 8.61,2.66c1.35,0 3.19,-0.39 5.52,-1.17c2.33,-0.78 4.61,-2 6.83,-3.67l5.84,7.82c-3.14,2.34 -6.33,4.07 -9.58,5.16c-3.25,1.1 -6.84,1.65 -10.77,1.65c-7.35,0 -13.07,-2.07 -17.14,-6.2c-4.07,-4.13 -6.11,-9.9 -6.11,-17.31s2.15,-13.37 6.46,-17.97s9.76,-6.9 16.35,-6.9s11.46,1.93 15.23,5.8c3.76,3.87 5.65,9.43 5.65,16.7l0,5.45l0.01,0zm-12.48,-8.44c0,-3.63 -0.72,-6.26 -2.15,-7.89c-1.44,-1.63 -3.54,-2.44 -6.33,-2.44c-2.43,0 -4.52,0.93 -6.26,2.79c-1.74,1.86 -2.81,4.37 -3.19,7.54l17.93,0z" fill="#fff" id="svg_7" stroke="#fff" stroke-miterlimit="10"/>
     <path d="m161.48,480.28l-30.37,0c0.23,3.54 1.39,6.2 3.47,7.98c2.08,1.77 4.95,2.66 8.61,2.66c1.35,0 3.19,-0.39 5.52,-1.17c2.33,-0.78 4.61,-2 6.83,-3.67l5.84,7.82c-3.14,2.34 -6.33,4.07 -9.58,5.16c-3.25,1.1 -6.84,1.65 -10.77,1.65c-7.35,0 -13.07,-2.07 -17.14,-6.2c-4.07,-4.13 -6.11,-9.9 -6.11,-17.31s2.15,-13.37 6.46,-17.97s9.76,-6.9 16.35,-6.9s11.46,1.93 15.23,5.8c3.76,3.87 5.65,9.43 5.65,16.7l0,5.45l0.01,0zm-12.48,-8.44c0,-3.63 -0.72,-6.26 -2.15,-7.89c-1.44,-1.63 -3.54,-2.44 -6.33,-2.44c-2.43,0 -4.52,0.93 -6.26,2.79c-1.74,1.86 -2.81,4.37 -3.19,7.54l17.93,0z" fill="#fff" id="svg_8" stroke="#fff" stroke-miterlimit="10"/>
     <path d="m170.79,499.57l0,-66.62l13.45,0l0,66.62l-13.45,0z" fill="#fff" id="svg_9" stroke="#fff" stroke-miterlimit="10"/>
     <path d="m198.35,499.57l0,-63.02l22.59,0c6.91,0 12.24,1.33 15.97,3.98c3.73,2.65 5.6,6.41 5.6,11.27c0,3.37 -1,6.32 -3.01,8.85c-2.01,2.54 -4.59,4.31 -7.76,5.34l0,0.18c4.07,0.53 7.32,2.13 9.73,4.81c2.42,2.68 3.62,5.95 3.62,9.82c0,5.74 -2.07,10.31 -6.2,13.69c-4.13,3.38 -9.71,5.08 -16.74,5.08l-23.82,0l0.02,0zm13.71,-52.82l0,15.73l6.37,0c2.99,0 5.35,-0.72 7.08,-2.15s2.59,-3.43 2.59,-5.98s-0.87,-4.45 -2.61,-5.71c-1.74,-1.26 -4.39,-1.89 -7.93,-1.89l-5.49,0l-0.01,0zm0,26.01l0,16.61l7.82,0c3.4,0 6.04,-0.78 7.91,-2.35c1.88,-1.57 2.81,-3.7 2.81,-6.39c0,-2.46 -0.94,-4.39 -2.81,-5.78s-4.51,-2.09 -7.91,-2.09l-7.82,0z" fill="#fff" id="svg_10" stroke="#fff" stroke-miterlimit="10"/>
     <path d="m261.98,447.28c-2.34,0 -4.26,-0.71 -5.74,-2.13s-2.22,-3.19 -2.22,-5.3s0.74,-3.98 2.22,-5.36s3.39,-2.07 5.74,-2.07s4.25,0.69 5.74,2.07c1.48,1.38 2.22,3.16 2.22,5.36s-0.74,3.95 -2.22,5.34c-1.48,1.39 -3.39,2.09 -5.74,2.09zm6.59,52.29l-13.4,0l0,-46.1l13.4,0l0,46.1z" fill="#fff" id="svg_11" stroke="#fff" stroke-miterlimit="10"/>
     <path d="m310.15,498.82c-1.41,0.62 -2.97,1.08 -4.68,1.38c-1.71,0.31 -3.46,0.46 -5.25,0.46c-4.92,0 -8.64,-1.2 -11.14,-3.6c-2.51,-2.4 -3.76,-5.98 -3.76,-10.72l0,-22.94l-7.51,0l0,-9.93l7.51,0l0,-10.37l13.4,-3.87l0,14.24l10.5,0l0,9.93l-10.5,0l0,22.02c0,1.88 0.37,3.24 1.1,4.09s1.86,1.27 3.38,1.27c0.79,0 1.54,-0.09 2.24,-0.29s1.38,-0.45 2.02,-0.77l2.68,9.1l0.01,0z" fill="#fff" id="svg_12" stroke="#fff" stroke-miterlimit="10"/>
     <path d="m359.14,480.28l-30.37,0c0.23,3.54 1.39,6.2 3.47,7.98c2.08,1.77 4.95,2.66 8.61,2.66c1.35,0 3.19,-0.39 5.52,-1.17c2.33,-0.78 4.61,-2 6.83,-3.67l5.84,7.82c-3.13,2.34 -6.33,4.07 -9.58,5.16c-3.25,1.1 -6.84,1.65 -10.77,1.65c-7.35,0 -13.07,-2.07 -17.14,-6.2s-6.11,-9.9 -6.11,-17.31s2.15,-13.37 6.46,-17.97s9.76,-6.9 16.35,-6.9s11.46,1.93 15.23,5.8c3.76,3.87 5.65,9.43 5.65,16.7l0,5.45l0.01,0zm-12.48,-8.44c0,-3.63 -0.72,-6.26 -2.15,-7.89c-1.44,-1.63 -3.54,-2.44 -6.33,-2.44c-2.43,0 -4.52,0.93 -6.26,2.79s-2.8,4.37 -3.19,7.54l17.93,0z" fill="#fff" id="svg_13" stroke="#fff" stroke-miterlimit="10"/>
     <path d="m364.11,495.7l5.58,-9.01c1.58,1.2 3.42,2.22 5.51,3.05c2.09,0.84 4.45,1.25 7.05,1.25c1.96,0 3.57,-0.36 4.81,-1.08c1.25,-0.72 1.87,-1.81 1.87,-3.27c0,-1.17 -0.48,-2.1 -1.45,-2.79c-0.97,-0.69 -2.75,-1.33 -5.36,-1.91c-5.71,-1.23 -9.81,-2.95 -12.3,-5.16s-3.74,-5.3 -3.74,-9.25c0,-4.63 1.84,-8.32 5.51,-11.07s8.2,-4.13 13.56,-4.13c2.75,0 5.37,0.36 7.84,1.08c2.47,0.72 4.8,1.78 6.96,3.19l-5.05,8.7c-1.88,-1.17 -3.63,-2.03 -5.25,-2.57c-1.63,-0.54 -3.3,-0.81 -5.03,-0.81c-1.99,0 -3.59,0.38 -4.79,1.14s-1.8,1.74 -1.8,2.94c0,1.32 0.55,2.29 1.65,2.92c1.1,0.63 3.2,1.27 6.31,1.91c5.3,1.11 9.12,2.81 11.45,5.08c2.33,2.27 3.49,5.37 3.49,9.29c0,4.66 -1.76,8.4 -5.27,11.23c-3.52,2.83 -8.16,4.24 -13.93,4.24c-3.19,0 -6.23,-0.4 -9.1,-1.21c-2.87,-0.81 -5.71,-2.06 -8.53,-3.76l0.01,0z" fill="#fff" id="svg_14" stroke="#fff" stroke-miterlimit="10"/>
    </g>
    <path d="m398.14,384.74l-90.82,0c62.17,-35.38 104.22,-102.21 104.22,-178.72c0,-24.46 -4.32,-47.93 -12.21,-69.7c-1.59,0.49 -3.24,0.77 -4.9,0.77c-5.21,0 -9.68,-2.27 -12.82,-5.81c-2.43,1.26 -5.13,1.98 -7.87,1.98c-9.81,0 -17.08,-8.02 -17.5,-17.5c-0.14,-3.03 0.68,-5.9 2.14,-8.43c-7.38,-2.07 -12.51,-8.94 -12.86,-16.85c-0.09,-2.02 0.26,-3.97 0.93,-5.8c-2.45,-2.41 -4.21,-5.54 -5.03,-9.02c-0.71,0.1 -1.42,0.16 -2.14,0.16c-1.95,0 -3.79,-0.33 -5.5,-0.91c-0.38,8.89 -8.74,16.23 -17.48,16.23c-9.81,0 -17.08,-8.02 -17.5,-17.5c-0.17,-3.72 1.09,-7.21 3.23,-10.08c-0.13,-0.19 -0.24,-0.39 -0.37,-0.58c-3.33,4.05 -8.45,6.72 -13.71,6.72c-9.81,0 -17.08,-8.02 -17.5,-17.5c-0.09,-1.99 0.25,-3.92 0.9,-5.72c-5,-3.1 -8.28,-8.7 -8.56,-14.96c-0.41,-9.14 7.78,-16.94 16.6,-17.45c-22.79,-8.76 -47.53,-13.57 -73.37,-13.57c-113.32,0 -205.52,92.2 -205.52,205.52s88.98,202.19 199.55,205.37c0.5,0.06 0.99,0.15 1.51,0.15l196.58,0c7.4,0 13.4,-6 13.4,-13.4s-6,-13.4 -13.4,-13.4zm-268.74,-88.05c-19.17,11.07 -43.83,4.51 -54.93,-14.71c-11.09,-19.21 -4.48,-43.85 14.72,-54.93c19.22,-11.1 43.83,-4.51 54.92,14.72c11.08,19.19 4.49,43.83 -14.71,54.92zm14.71,-126.41c-11.08,19.22 -35.7,25.82 -54.92,14.72c-19.2,-11.08 -25.8,-35.72 -14.72,-54.92c11.07,-19.21 35.71,-25.8 54.93,-14.73c19.2,11.1 25.79,35.73 14.71,54.93zm61.91,187.65c-22.17,0 -40.21,-18.04 -40.21,-40.21s18.04,-40.21 40.21,-40.21s40.21,18.04 40.21,40.21s-18.03,40.21 -40.21,40.21zm0,-223.39c-22.17,0 -40.21,-18.04 -40.21,-40.21s18.04,-40.21 40.21,-40.21s40.21,18.04 40.21,40.21s-18.03,40.21 -40.21,40.21zm76.63,-19.19c19.18,-11.07 43.84,-4.48 54.93,14.72l0,0c11.08,19.21 4.48,43.85 -14.72,54.93c-19.18,11.08 -43.82,4.54 -54.92,-14.72c-11.1,-19.19 -4.49,-43.83 14.71,-54.93zm0,181.35c-19.2,-11.1 -25.8,-35.74 -14.71,-54.93c11.07,-19.2 35.66,-25.83 54.92,-14.72c19.2,11.08 25.8,35.72 14.72,54.92l0,0c-11.08,19.19 -35.7,25.82 -54.93,14.73z" fill="url(#linear-gradient)" id="svg_15" stroke="#000" stroke-miterlimit="10"/>
   </g>
  </g>
 </g>
</svg>