<?xml version="1.0"?>
<svg width="128" height="128" xmlns="http://www.w3.org/2000/svg" xmlns:svg="http://www.w3.org/2000/svg" data-name="Layer 2">
 <defs>
  <linearGradient id="linear-gradient" x1="0.3" x2="0.76" y1="0.04" y2="1.09">
   <stop offset="0.09" stop-color="#f84b82"/>
   <stop offset="0.3" stop-color="#c8459a"/>
   <stop offset="0.74" stop-color="#5a3ad5"/>
  </linearGradient>
 </defs>
 <g class="layer">
  <title>Layer 1</title>
  <g data-name="Layer 1" id="Layer_1">
   <g id="svg_4">
    <g id="svg_5">
     <path d="m28.1,127.1l-3.96,0l-2.16,-3.98c-0.35,-0.65 -0.7,-1.13 -1.05,-1.46c-0.35,-0.33 -0.75,-0.51 -1.2,-0.55l-1.02,0l0,5.99l-3.48,0l0,-15.99l5.63,0c1.91,0 3.35,0.38 4.32,1.13c0.97,0.75 1.45,1.88 1.45,3.39c0,1.06 -0.31,1.98 -0.93,2.75c-0.62,0.77 -1.47,1.34 -2.55,1.71l0,0.05c0.46,0.15 0.89,0.45 1.3,0.91c0.41,0.46 0.75,0.94 1.03,1.46l2.63,4.6l0,0zm-9.4,-13.36l0,4.72l1.63,0c0.79,0 1.42,-0.24 1.9,-0.71s0.72,-1.07 0.72,-1.77s-0.21,-1.29 -0.63,-1.67c-0.42,-0.38 -1.06,-0.56 -1.92,-0.56l-1.69,0z" fill="#fff" id="svg_6" stroke="#fff" stroke-miterlimit="10"/>
     <path d="m39.61,122.21l-7.7,0c0.06,0.9 0.35,1.57 0.88,2.02c0.53,0.45 1.26,0.67 2.18,0.67c0.34,0 0.81,-0.1 1.4,-0.3c0.59,-0.2 1.17,-0.51 1.73,-0.93l1.48,1.98c-0.8,0.59 -1.61,1.03 -2.43,1.31c-0.82,0.28 -1.74,0.42 -2.73,0.42c-1.86,0 -3.32,-0.53 -4.35,-1.57c-1.03,-1.05 -1.55,-2.51 -1.55,-4.39s0.55,-3.39 1.64,-4.56s2.48,-1.75 4.15,-1.75s2.91,0.49 3.86,1.47c0.95,0.98 1.43,2.39 1.43,4.24l0,1.38l0,0zm-3.17,-2.14c0,-0.92 -0.18,-1.59 -0.55,-2c-0.37,-0.41 -0.9,-0.62 -1.61,-0.62c-0.62,0 -1.15,0.24 -1.59,0.71c-0.44,0.47 -0.71,1.11 -0.81,1.91l4.55,0z" fill="#fff" id="svg_7" stroke="#fff" stroke-miterlimit="10"/>
     <path d="m52.37,122.21l-7.7,0c0.06,0.9 0.35,1.57 0.88,2.02c0.53,0.45 1.26,0.67 2.18,0.67c0.34,0 0.81,-0.1 1.4,-0.3c0.59,-0.2 1.17,-0.51 1.73,-0.93l1.48,1.98c-0.8,0.59 -1.61,1.03 -2.43,1.31c-0.82,0.28 -1.74,0.42 -2.73,0.42c-1.86,0 -3.32,-0.53 -4.35,-1.57c-1.03,-1.05 -1.55,-2.51 -1.55,-4.39s0.55,-3.39 1.64,-4.56s2.48,-1.75 4.15,-1.75s2.91,0.49 3.86,1.47c0.95,0.98 1.43,2.39 1.43,4.24l0,1.38l0,0zm-3.17,-2.14c0,-0.92 -0.18,-1.59 -0.55,-2c-0.37,-0.41 -0.9,-0.62 -1.61,-0.62c-0.62,0 -1.15,0.24 -1.59,0.71c-0.44,0.47 -0.71,1.11 -0.81,1.91l4.55,0z" fill="#fff" id="svg_8" stroke="#fff" stroke-miterlimit="10"/>
     <path d="m54.73,127.1l0,-16.9l3.41,0l0,16.9l-3.41,0z" fill="#fff" id="svg_9" stroke="#fff" stroke-miterlimit="10"/>
     <path d="m61.72,127.1l0,-15.99l5.73,0c1.75,0 3.11,0.34 4.05,1.01c0.95,0.67 1.42,1.63 1.42,2.86c0,0.85 -0.25,1.6 -0.76,2.25c-0.51,0.64 -1.16,1.09 -1.97,1.35l0,0.05c1.03,0.13 1.86,0.54 2.47,1.22c0.61,0.68 0.92,1.51 0.92,2.49c0,1.46 -0.53,2.62 -1.57,3.47c-1.05,0.86 -2.46,1.29 -4.25,1.29l-6.04,0l0.01,0zm3.48,-13.4l0,3.99l1.62,0c0.76,0 1.36,-0.18 1.8,-0.55s0.66,-0.87 0.66,-1.52s-0.22,-1.13 -0.66,-1.45c-0.44,-0.32 -1.11,-0.48 -2.01,-0.48l-1.39,0l0,0zm0,6.6l0,4.21l1.98,0c0.86,0 1.53,-0.2 2.01,-0.6c0.48,-0.4 0.71,-0.94 0.71,-1.62c0,-0.62 -0.24,-1.11 -0.71,-1.47s-1.14,-0.53 -2.01,-0.53l-1.98,0z" fill="#fff" id="svg_10" stroke="#fff" stroke-miterlimit="10"/>
     <path d="m77.87,113.84c-0.59,0 -1.08,-0.18 -1.46,-0.54s-0.56,-0.81 -0.56,-1.34s0.19,-1.01 0.56,-1.36s0.86,-0.53 1.46,-0.53s1.08,0.18 1.46,0.53c0.38,0.35 0.56,0.8 0.56,1.36s-0.19,1 -0.56,1.35c-0.38,0.35 -0.86,0.53 -1.46,0.53zm1.67,13.27l-3.4,0l0,-11.69l3.4,0l0,11.69z" fill="#fff" id="svg_11" stroke="#fff" stroke-miterlimit="10"/>
     <path d="m90.09,126.91c-0.36,0.16 -0.75,0.27 -1.19,0.35c-0.43,0.08 -0.88,0.12 -1.33,0.12c-1.25,0 -2.19,-0.3 -2.83,-0.91c-0.64,-0.61 -0.95,-1.52 -0.95,-2.72l0,-5.82l-1.91,0l0,-2.52l1.91,0l0,-2.63l3.4,-0.98l0,3.61l2.66,0l0,2.52l-2.66,0l0,5.59c0,0.48 0.09,0.82 0.28,1.04s0.47,0.32 0.86,0.32c0.2,0 0.39,-0.02 0.57,-0.07s0.35,-0.11 0.51,-0.2l0.68,2.31l0,0z" fill="#fff" id="svg_12" stroke="#fff" stroke-miterlimit="10"/>
     <path d="m102.51,122.21l-7.7,0c0.06,0.9 0.35,1.57 0.88,2.02c0.53,0.45 1.26,0.67 2.18,0.67c0.34,0 0.81,-0.1 1.4,-0.3c0.59,-0.2 1.17,-0.51 1.73,-0.93l1.48,1.98c-0.79,0.59 -1.61,1.03 -2.43,1.31c-0.82,0.28 -1.74,0.42 -2.73,0.42c-1.86,0 -3.32,-0.53 -4.35,-1.57s-1.55,-2.51 -1.55,-4.39s0.55,-3.39 1.64,-4.56s2.48,-1.75 4.15,-1.75s2.91,0.49 3.86,1.47c0.95,0.98 1.43,2.39 1.43,4.24l0,1.38l0,0zm-3.17,-2.14c0,-0.92 -0.18,-1.59 -0.55,-2c-0.37,-0.41 -0.9,-0.62 -1.61,-0.62c-0.62,0 -1.15,0.24 -1.59,0.71s-0.71,1.11 -0.81,1.91l4.55,0z" fill="#fff" id="svg_13" stroke="#fff" stroke-miterlimit="10"/>
     <path d="m103.77,126.12l1.42,-2.29c0.4,0.3 0.87,0.56 1.4,0.77c0.53,0.21 1.13,0.32 1.79,0.32c0.5,0 0.91,-0.09 1.22,-0.27c0.32,-0.18 0.47,-0.46 0.47,-0.83c0,-0.3 -0.12,-0.53 -0.37,-0.71c-0.25,-0.18 -0.7,-0.34 -1.36,-0.48c-1.45,-0.31 -2.49,-0.75 -3.12,-1.31s-0.95,-1.34 -0.95,-2.35c0,-1.17 0.47,-2.11 1.4,-2.81s2.08,-1.05 3.44,-1.05c0.7,0 1.36,0.09 1.99,0.27c0.63,0.18 1.22,0.45 1.77,0.81l-1.28,2.21c-0.48,-0.3 -0.92,-0.51 -1.33,-0.65c-0.41,-0.14 -0.84,-0.21 -1.28,-0.21c-0.5,0 -0.91,0.1 -1.22,0.29s-0.46,0.44 -0.46,0.75c0,0.33 0.14,0.58 0.42,0.74c0.28,0.16 0.81,0.32 1.6,0.48c1.34,0.28 2.31,0.71 2.9,1.29c0.59,0.58 0.89,1.36 0.89,2.36c0,1.18 -0.45,2.13 -1.34,2.85c-0.89,0.72 -2.07,1.08 -3.53,1.08c-0.81,0 -1.58,-0.1 -2.31,-0.31c-0.73,-0.21 -1.45,-0.52 -2.16,-0.95l0,0z" fill="#fff" id="svg_14" stroke="#fff" stroke-miterlimit="10"/>
    </g>
    <path d="m112.41,97.97l-23.04,0c15.77,-8.98 26.44,-25.93 26.44,-45.34c0,-6.21 -1.1,-12.16 -3.1,-17.68c-0.4,0.12 -0.82,0.2 -1.24,0.2c-1.32,0 -2.46,-0.58 -3.25,-1.47c-0.62,0.32 -1.3,0.5 -2,0.5c-2.49,0 -4.33,-2.03 -4.44,-4.44c-0.04,-0.77 0.17,-1.5 0.54,-2.14c-1.87,-0.53 -3.17,-2.27 -3.26,-4.27c-0.02,-0.51 0.07,-1.01 0.24,-1.47c-0.62,-0.61 -1.07,-1.41 -1.28,-2.29c-0.18,0.03 -0.36,0.04 -0.54,0.04c-0.49,0 -0.96,-0.08 -1.4,-0.23c-0.1,2.26 -2.22,4.12 -4.43,4.12c-2.49,0 -4.33,-2.03 -4.44,-4.44c-0.04,-0.94 0.28,-1.83 0.82,-2.56c-0.03,-0.05 -0.06,-0.1 -0.09,-0.15c-0.84,1.03 -2.14,1.7 -3.48,1.7c-2.49,0 -4.33,-2.03 -4.44,-4.44c-0.02,-0.5 0.06,-0.99 0.23,-1.45c-1.27,-0.79 -2.1,-2.21 -2.17,-3.8c-0.1,-2.32 1.97,-4.3 4.21,-4.43c-5.78,-2.22 -12.06,-3.44 -18.61,-3.44c-28.75,0 -52.14,23.39 -52.14,52.14s22.57,51.29 50.62,52.1c0.13,0.02 0.25,0.04 0.38,0.04l49.87,0c1.88,0 3.4,-1.52 3.4,-3.4s-1.52,-3.4 -3.4,-3.4zm-68.17,-22.34c-4.86,2.81 -11.12,1.14 -13.93,-3.73c-2.81,-4.87 -1.14,-11.12 3.73,-13.93c4.88,-2.82 11.12,-1.14 13.93,3.73c2.81,4.87 1.14,11.12 -3.73,13.93zm3.73,-32.07c-2.81,4.88 -9.06,6.55 -13.93,3.73c-4.87,-2.81 -6.54,-9.06 -3.73,-13.93c2.81,-4.87 9.06,-6.54 13.93,-3.74c4.87,2.82 6.54,9.06 3.73,13.93zm15.71,47.6c-5.62,0 -10.2,-4.58 -10.2,-10.2s4.58,-10.2 10.2,-10.2s10.2,4.58 10.2,10.2s-4.57,10.2 -10.2,10.2zm0,-56.67c-5.62,0 -10.2,-4.58 -10.2,-10.2s4.58,-10.2 10.2,-10.2s10.2,4.58 10.2,10.2s-4.57,10.2 -10.2,10.2zm19.44,-4.87c4.87,-2.81 11.12,-1.14 13.93,3.73l0,0c2.81,4.87 1.14,11.12 -3.73,13.93c-4.87,2.81 -11.12,1.15 -13.93,-3.73c-2.82,-4.87 -1.14,-11.12 3.73,-13.93zm0,46.01c-4.87,-2.82 -6.54,-9.07 -3.73,-13.93c2.81,-4.87 9.05,-6.55 13.93,-3.73c4.87,2.81 6.54,9.06 3.73,13.93l0,0c-2.81,4.87 -9.06,6.55 -13.93,3.74z" fill="url(#linear-gradient)" id="svg_15" stroke="#000" stroke-miterlimit="10"/>
   </g>
  </g>
 </g>
</svg>